<svg width="2937" height="2126" viewBox="0 0 2937 2126" fill="none" xmlns="http://www.w3.org/2000/svg" xmlns:xlink="http://www.w3.org/1999/xlink">
<path d="M445.073 2029.27V2102H429.696V2043.87H429.27L412.615 2054.31V2040.67L430.619 2029.27H445.073Z" fill="#737370"/>
<path d="M831.818 2102.99C826.515 2102.99 821.792 2102.08 817.649 2100.26C813.53 2098.41 810.274 2095.88 807.883 2092.66C805.516 2089.42 804.297 2085.68 804.226 2081.44H819.709C819.803 2083.21 820.383 2084.78 821.449 2086.13C822.538 2087.45 823.982 2088.48 825.781 2089.22C827.58 2089.95 829.604 2090.32 831.854 2090.32C834.197 2090.32 836.269 2089.9 838.068 2089.07C839.867 2088.25 841.276 2087.1 842.294 2085.63C843.312 2084.16 843.821 2082.47 843.821 2080.55C843.821 2078.61 843.276 2076.89 842.187 2075.4C841.122 2073.89 839.583 2072.7 837.571 2071.85C835.582 2071 833.215 2070.57 830.469 2070.57H823.686V2059.28H830.469C832.789 2059.28 834.836 2058.88 836.612 2058.07C838.411 2057.27 839.808 2056.15 840.802 2054.73C841.797 2053.29 842.294 2051.61 842.294 2049.69C842.294 2047.87 841.856 2046.27 840.98 2044.9C840.128 2043.5 838.92 2042.41 837.358 2041.63C835.819 2040.85 834.02 2040.46 831.96 2040.46C829.877 2040.46 827.971 2040.84 826.243 2041.6C824.515 2042.33 823.13 2043.38 822.088 2044.76C821.046 2046.13 820.49 2047.74 820.419 2049.59H805.682C805.753 2045.39 806.948 2041.7 809.268 2038.51C811.588 2035.31 814.713 2032.81 818.643 2031.01C822.597 2029.19 827.059 2028.28 832.031 2028.28C837.05 2028.28 841.442 2029.19 845.206 2031.01C848.97 2032.84 851.894 2035.3 853.977 2038.4C856.084 2041.48 857.126 2044.93 857.102 2048.77C857.126 2052.84 855.859 2056.24 853.302 2058.96C850.769 2061.68 847.467 2063.41 843.395 2064.14V2064.71C848.745 2065.4 852.817 2067.26 855.611 2070.29C858.428 2073.29 859.825 2077.06 859.801 2081.58C859.825 2085.72 858.629 2089.41 856.214 2092.62C853.823 2095.84 850.521 2098.38 846.307 2100.22C842.093 2102.07 837.263 2102.99 831.818 2102.99Z" fill="#737370"/>
<path d="M1431.85 2029.27V2102H1416.47V2043.87H1416.04L1399.39 2054.31V2040.67L1417.39 2029.27H1431.85ZM1475.69 2102.99C1470.67 2102.99 1466.2 2102.07 1462.27 2100.22C1458.36 2098.38 1455.26 2095.83 1452.97 2092.59C1450.67 2089.35 1449.47 2085.63 1449.38 2081.44H1464.29C1464.46 2084.26 1465.64 2086.54 1467.85 2088.29C1470.05 2090.04 1472.66 2090.92 1475.69 2090.92C1478.11 2090.92 1480.24 2090.39 1482.09 2089.32C1483.96 2088.23 1485.41 2086.73 1486.45 2084.81C1487.52 2082.87 1488.05 2080.65 1488.05 2078.14C1488.05 2075.58 1487.51 2073.33 1486.42 2071.39C1485.35 2069.45 1483.87 2067.93 1481.98 2066.84C1480.09 2065.75 1477.92 2065.2 1475.48 2065.17C1473.35 2065.17 1471.28 2065.61 1469.27 2066.49C1467.28 2067.36 1465.73 2068.56 1464.61 2070.08L1450.94 2067.62L1454.39 2029.27H1498.85V2041.84H1467.06L1465.18 2060.06H1465.61C1466.89 2058.26 1468.82 2056.77 1471.4 2055.59C1473.98 2054.4 1476.87 2053.81 1480.06 2053.81C1484.44 2053.81 1488.35 2054.84 1491.78 2056.9C1495.21 2058.96 1497.92 2061.79 1499.91 2065.39C1501.9 2068.96 1502.88 2073.08 1502.86 2077.75C1502.88 2082.65 1501.75 2087 1499.45 2090.81C1497.18 2094.6 1493.99 2097.58 1489.9 2099.76C1485.83 2101.92 1481.09 2102.99 1475.69 2102.99Z" fill="#737370"/>
<path d="M1631.06 2029.27V2102H1615.69V2043.87H1615.26L1598.61 2054.31V2040.67L1616.61 2029.27H1631.06ZM1676.26 2102.99C1672.52 2102.97 1668.91 2102.34 1665.43 2101.11C1661.97 2099.88 1658.87 2097.88 1656.13 2095.11C1653.38 2092.34 1651.2 2088.67 1649.59 2084.1C1648.01 2079.53 1647.21 2073.92 1647.21 2067.27C1647.24 2061.16 1647.94 2055.71 1649.31 2050.9C1650.71 2046.07 1652.69 2041.97 1655.27 2038.61C1657.88 2035.25 1660.99 2032.69 1664.61 2030.94C1668.24 2029.17 1672.3 2028.28 1676.79 2028.28C1681.65 2028.28 1685.93 2029.23 1689.65 2031.12C1693.37 2032.99 1696.35 2035.53 1698.6 2038.75C1700.87 2041.97 1702.24 2045.58 1702.72 2049.59H1687.55C1686.96 2047.05 1685.72 2045.06 1683.83 2043.62C1681.93 2042.18 1679.59 2041.45 1676.79 2041.45C1672.06 2041.45 1668.46 2043.51 1666 2047.63C1663.56 2051.75 1662.32 2057.35 1662.27 2064.43H1662.77C1663.86 2062.27 1665.32 2060.44 1667.17 2058.92C1669.04 2057.39 1671.16 2056.21 1673.53 2055.41C1675.92 2054.58 1678.44 2054.17 1681.09 2054.17C1685.4 2054.17 1689.24 2055.18 1692.6 2057.22C1695.96 2059.23 1698.61 2062 1700.55 2065.53C1702.49 2069.06 1703.46 2073.09 1703.46 2077.64C1703.46 2082.56 1702.32 2086.94 1700.02 2090.78C1697.75 2094.61 1694.56 2097.62 1690.47 2099.8C1686.39 2101.95 1681.66 2103.02 1676.26 2102.99ZM1676.19 2090.92C1678.56 2090.92 1680.68 2090.35 1682.55 2089.22C1684.42 2088.08 1685.89 2086.54 1686.95 2084.6C1688.02 2082.66 1688.55 2080.48 1688.55 2078.07C1688.55 2075.65 1688.02 2073.48 1686.95 2071.57C1685.91 2069.65 1684.47 2068.12 1682.62 2066.99C1680.77 2065.85 1678.66 2065.28 1676.3 2065.28C1674.52 2065.28 1672.88 2065.61 1671.36 2066.28C1669.87 2066.94 1668.56 2067.86 1667.42 2069.05C1666.31 2070.23 1665.43 2071.6 1664.79 2073.16C1664.15 2074.7 1663.83 2076.35 1663.83 2078.1C1663.83 2080.44 1664.37 2082.59 1665.43 2084.53C1666.52 2086.47 1667.99 2088.02 1669.83 2089.18C1671.7 2090.34 1673.82 2090.92 1676.19 2090.92Z" fill="#737370"/>
<path d="M2333.36 2102.99C2328.05 2102.99 2323.33 2102.08 2319.19 2100.26C2315.07 2098.41 2311.81 2095.88 2309.42 2092.66C2307.05 2089.42 2305.83 2085.68 2305.76 2081.44H2321.25C2321.34 2083.21 2321.92 2084.78 2322.99 2086.13C2324.07 2087.45 2325.52 2088.48 2327.32 2089.22C2329.12 2089.95 2331.14 2090.32 2333.39 2090.32C2335.73 2090.32 2337.81 2089.9 2339.61 2089.07C2341.4 2088.25 2342.81 2087.1 2343.83 2085.63C2344.85 2084.16 2345.36 2082.47 2345.36 2080.55C2345.36 2078.61 2344.81 2076.89 2343.72 2075.4C2342.66 2073.89 2341.12 2072.7 2339.11 2071.85C2337.12 2071 2334.75 2070.57 2332.01 2070.57H2325.22V2059.28H2332.01C2334.33 2059.28 2336.37 2058.88 2338.15 2058.07C2339.95 2057.27 2341.35 2056.15 2342.34 2054.73C2343.33 2053.29 2343.83 2051.61 2343.83 2049.69C2343.83 2047.87 2343.39 2046.27 2342.52 2044.9C2341.66 2043.5 2340.46 2042.41 2338.89 2041.63C2337.36 2040.85 2335.56 2040.46 2333.5 2040.46C2331.41 2040.46 2329.51 2040.84 2327.78 2041.6C2326.05 2042.33 2324.67 2043.38 2323.62 2044.76C2322.58 2046.13 2322.03 2047.74 2321.96 2049.59H2307.22C2307.29 2045.39 2308.49 2041.7 2310.81 2038.51C2313.13 2035.31 2316.25 2032.81 2320.18 2031.01C2324.13 2029.19 2328.6 2028.28 2333.57 2028.28C2338.59 2028.28 2342.98 2029.19 2346.74 2031.01C2350.51 2032.84 2353.43 2035.3 2355.51 2038.4C2357.62 2041.48 2358.66 2044.93 2358.64 2048.77C2358.66 2052.84 2357.4 2056.24 2354.84 2058.96C2352.31 2061.68 2349 2063.41 2344.93 2064.14V2064.71C2350.28 2065.4 2354.35 2067.26 2357.15 2070.29C2359.96 2073.29 2361.36 2077.06 2361.34 2081.58C2361.36 2085.72 2360.17 2089.41 2357.75 2092.62C2355.36 2095.84 2352.06 2098.38 2347.84 2100.22C2343.63 2102.07 2338.8 2102.99 2333.36 2102.99ZM2404.03 2029.27V2102H2388.66V2043.87H2388.23L2371.57 2054.31V2040.67L2389.58 2029.27H2404.03Z" fill="#737370"/>
<path d="M1067.02 2102.92C1064.68 2102.92 1062.67 2102.09 1060.99 2100.44C1059.33 2098.76 1058.5 2096.74 1058.5 2094.4C1058.5 2092.08 1059.33 2090.09 1060.99 2088.43C1062.67 2086.78 1064.68 2085.95 1067.02 2085.95C1069.3 2085.95 1071.29 2086.78 1072.99 2088.43C1074.69 2090.09 1075.55 2092.08 1075.55 2094.4C1075.55 2095.96 1075.14 2097.4 1074.34 2098.7C1073.56 2099.98 1072.53 2101.01 1071.25 2101.79C1069.97 2102.54 1068.56 2102.92 1067.02 2102.92ZM1096.81 2102.92C1094.47 2102.92 1092.45 2102.09 1090.77 2100.44C1089.11 2098.76 1088.29 2096.74 1088.29 2094.4C1088.29 2092.08 1089.11 2090.09 1090.77 2088.43C1092.45 2086.78 1094.47 2085.95 1096.81 2085.95C1099.08 2085.95 1101.07 2086.78 1102.77 2088.43C1104.48 2090.09 1105.33 2092.08 1105.33 2094.4C1105.33 2095.96 1104.93 2097.4 1104.12 2098.7C1103.34 2099.98 1102.31 2101.01 1101.03 2101.79C1099.76 2102.54 1098.35 2102.92 1096.81 2102.92ZM1126.59 2102.92C1124.25 2102.92 1122.24 2102.09 1120.56 2100.44C1118.9 2098.76 1118.07 2096.74 1118.07 2094.4C1118.07 2092.08 1118.9 2090.09 1120.56 2088.43C1122.24 2086.78 1124.25 2085.95 1126.59 2085.95C1128.87 2085.95 1130.86 2086.78 1132.56 2088.43C1134.26 2090.09 1135.12 2092.08 1135.12 2094.4C1135.12 2095.96 1134.71 2097.4 1133.91 2098.7C1133.13 2099.98 1132.1 2101.01 1130.82 2101.79C1129.54 2102.54 1128.13 2102.92 1126.59 2102.92ZM1156.38 2102.92C1154.04 2102.92 1152.02 2102.09 1150.34 2100.44C1148.69 2098.76 1147.86 2096.74 1147.86 2094.4C1147.86 2092.08 1148.69 2090.09 1150.34 2088.43C1152.02 2086.78 1154.04 2085.95 1156.38 2085.95C1158.65 2085.95 1160.64 2086.78 1162.35 2088.43C1164.05 2090.09 1164.9 2092.08 1164.9 2094.4C1164.9 2095.96 1164.5 2097.4 1163.69 2098.7C1162.91 2099.98 1161.88 2101.01 1160.61 2101.79C1159.33 2102.54 1157.92 2102.92 1156.38 2102.92ZM1186.16 2102.92C1183.82 2102.92 1181.81 2102.09 1180.13 2100.44C1178.47 2098.76 1177.64 2096.74 1177.64 2094.4C1177.64 2092.08 1178.47 2090.09 1180.13 2088.43C1181.81 2086.78 1183.82 2085.95 1186.16 2085.95C1188.44 2085.95 1190.43 2086.78 1192.13 2088.43C1193.83 2090.09 1194.69 2092.08 1194.69 2094.4C1194.69 2095.96 1194.28 2097.4 1193.48 2098.7C1192.7 2099.98 1191.67 2101.01 1190.39 2101.79C1189.11 2102.54 1187.7 2102.92 1186.16 2102.92ZM1215.95 2102.92C1213.61 2102.92 1211.59 2102.09 1209.91 2100.44C1208.26 2098.76 1207.43 2096.74 1207.43 2094.4C1207.43 2092.08 1208.26 2090.09 1209.91 2088.43C1211.59 2086.78 1213.61 2085.95 1215.95 2085.95C1218.22 2085.95 1220.21 2086.78 1221.92 2088.43C1223.62 2090.09 1224.47 2092.08 1224.47 2094.4C1224.47 2095.96 1224.07 2097.4 1223.26 2098.7C1222.48 2099.98 1221.45 2101.01 1220.18 2101.79C1218.9 2102.54 1217.49 2102.92 1215.95 2102.92Z" fill="#737370"/>
<path d="M1953.02 2102.92C1950.68 2102.92 1948.67 2102.09 1946.99 2100.44C1945.33 2098.76 1944.5 2096.74 1944.5 2094.4C1944.5 2092.08 1945.33 2090.09 1946.99 2088.43C1948.67 2086.78 1950.68 2085.95 1953.02 2085.95C1955.3 2085.95 1957.29 2086.78 1958.99 2088.43C1960.69 2090.09 1961.55 2092.08 1961.55 2094.4C1961.55 2095.96 1961.14 2097.4 1960.34 2098.7C1959.56 2099.98 1958.53 2101.01 1957.25 2101.79C1955.97 2102.54 1954.56 2102.92 1953.02 2102.92ZM1982.81 2102.92C1980.47 2102.92 1978.45 2102.09 1976.77 2100.44C1975.11 2098.76 1974.29 2096.74 1974.29 2094.4C1974.29 2092.08 1975.11 2090.09 1976.77 2088.43C1978.45 2086.78 1980.47 2085.95 1982.81 2085.95C1985.08 2085.95 1987.07 2086.78 1988.77 2088.43C1990.48 2090.09 1991.33 2092.08 1991.33 2094.4C1991.33 2095.96 1990.93 2097.4 1990.12 2098.7C1989.34 2099.98 1988.31 2101.01 1987.03 2101.79C1985.76 2102.54 1984.35 2102.92 1982.81 2102.92ZM2012.59 2102.92C2010.25 2102.92 2008.24 2102.09 2006.56 2100.44C2004.9 2098.76 2004.07 2096.74 2004.07 2094.4C2004.07 2092.08 2004.9 2090.09 2006.56 2088.43C2008.24 2086.78 2010.25 2085.95 2012.59 2085.95C2014.87 2085.95 2016.86 2086.78 2018.56 2088.43C2020.26 2090.09 2021.12 2092.08 2021.12 2094.4C2021.12 2095.96 2020.71 2097.4 2019.91 2098.7C2019.13 2099.98 2018.1 2101.01 2016.82 2101.79C2015.54 2102.54 2014.13 2102.92 2012.59 2102.92ZM2042.38 2102.92C2040.04 2102.92 2038.02 2102.09 2036.34 2100.44C2034.69 2098.76 2033.86 2096.74 2033.86 2094.4C2033.86 2092.08 2034.69 2090.09 2036.34 2088.43C2038.02 2086.78 2040.04 2085.95 2042.38 2085.95C2044.65 2085.95 2046.64 2086.78 2048.35 2088.43C2050.05 2090.09 2050.9 2092.08 2050.9 2094.4C2050.9 2095.96 2050.5 2097.4 2049.69 2098.7C2048.91 2099.98 2047.88 2101.01 2046.61 2101.79C2045.33 2102.54 2043.92 2102.92 2042.38 2102.92ZM2072.16 2102.92C2069.82 2102.92 2067.81 2102.09 2066.13 2100.44C2064.47 2098.76 2063.64 2096.74 2063.64 2094.4C2063.64 2092.08 2064.47 2090.09 2066.13 2088.43C2067.81 2086.78 2069.82 2085.95 2072.16 2085.95C2074.44 2085.95 2076.43 2086.78 2078.13 2088.43C2079.83 2090.09 2080.69 2092.08 2080.69 2094.4C2080.69 2095.96 2080.28 2097.4 2079.48 2098.7C2078.7 2099.98 2077.67 2101.01 2076.39 2101.79C2075.11 2102.54 2073.7 2102.92 2072.16 2102.92ZM2101.95 2102.92C2099.61 2102.92 2097.59 2102.09 2095.91 2100.44C2094.26 2098.76 2093.43 2096.74 2093.43 2094.4C2093.43 2092.08 2094.26 2090.09 2095.91 2088.43C2097.59 2086.78 2099.61 2085.95 2101.95 2085.95C2104.22 2085.95 2106.21 2086.78 2107.92 2088.43C2109.62 2090.09 2110.47 2092.08 2110.47 2094.4C2110.47 2095.96 2110.07 2097.4 2109.26 2098.7C2108.48 2099.98 2107.45 2101.01 2106.18 2101.79C2104.9 2102.54 2103.49 2102.92 2101.95 2102.92Z" fill="#737370"/>
<path d="M606.401 2102V2090.92L632.289 2066.95C634.49 2064.82 636.337 2062.9 637.828 2061.2C639.343 2059.49 640.492 2057.82 641.273 2056.19C642.054 2054.53 642.445 2052.75 642.445 2050.83C642.445 2048.7 641.959 2046.86 640.989 2045.32C640.018 2043.76 638.692 2042.57 637.012 2041.74C635.331 2040.88 633.425 2040.46 631.294 2040.46C629.069 2040.46 627.128 2040.91 625.47 2041.81C623.813 2042.71 622.535 2044 621.635 2045.68C620.735 2047.36 620.286 2049.36 620.286 2051.68H605.691C605.691 2046.92 606.768 2042.79 608.922 2039.29C611.076 2035.78 614.095 2033.07 617.977 2031.15C621.86 2029.24 626.334 2028.28 631.401 2028.28C636.609 2028.28 641.143 2029.2 645.002 2031.05C648.884 2032.87 651.903 2035.4 654.057 2038.65C656.211 2041.89 657.289 2045.61 657.289 2049.8C657.289 2052.54 656.744 2055.26 655.655 2057.93C654.59 2060.61 652.684 2063.58 649.938 2066.84C647.191 2070.09 643.321 2073.98 638.325 2078.53L627.708 2088.93V2089.43H658.247V2102H606.401Z" fill="#737370"/>
<path d="M80.571 1502V1429.27H95.6989V1456.62H96.1605C96.8234 1455.15 97.7822 1453.66 99.0369 1452.14C100.315 1450.6 101.973 1449.32 104.009 1448.31C106.068 1447.27 108.625 1446.74 111.679 1446.74C115.656 1446.74 119.326 1447.79 122.688 1449.87C126.049 1451.93 128.736 1455.04 130.749 1459.21C132.761 1463.35 133.767 1468.55 133.767 1474.8C133.767 1480.88 132.785 1486.02 130.82 1490.21C128.878 1494.38 126.227 1497.54 122.865 1499.69C119.527 1501.82 115.786 1502.89 111.643 1502.89C108.708 1502.89 106.21 1502.4 104.151 1501.43C102.115 1500.46 100.446 1499.24 99.1435 1497.77C97.8414 1496.28 96.8471 1494.78 96.1605 1493.26H95.4858V1502H80.571ZM95.3793 1474.73C95.3793 1477.97 95.8291 1480.8 96.7287 1483.21C97.6283 1485.63 98.9304 1487.51 100.635 1488.86C102.339 1490.19 104.411 1490.85 106.849 1490.85C109.312 1490.85 111.395 1490.17 113.099 1488.83C114.804 1487.45 116.094 1485.56 116.97 1483.14C117.87 1480.71 118.32 1477.9 118.32 1474.73C118.32 1471.58 117.882 1468.81 117.006 1466.42C116.13 1464.03 114.839 1462.16 113.135 1460.81C111.43 1459.46 109.335 1458.78 106.849 1458.78C104.387 1458.78 102.304 1459.43 100.599 1460.74C98.9186 1462.04 97.6283 1463.88 96.7287 1466.28C95.8291 1468.67 95.3793 1471.48 95.3793 1474.73ZM159.415 1503.03C155.935 1503.03 152.834 1502.43 150.111 1501.22C147.389 1499.99 145.234 1498.18 143.648 1495.79C142.086 1493.37 141.304 1490.36 141.304 1486.77C141.304 1483.74 141.861 1481.19 142.973 1479.13C144.086 1477.07 145.601 1475.41 147.519 1474.16C149.436 1472.9 151.614 1471.96 154.053 1471.32C156.515 1470.68 159.096 1470.23 161.794 1469.97C164.967 1469.64 167.524 1469.33 169.465 1469.05C171.406 1468.74 172.815 1468.29 173.691 1467.7C174.567 1467.1 175.005 1466.23 175.005 1465.07V1464.86C175.005 1462.61 174.294 1460.87 172.874 1459.63C171.477 1458.4 169.489 1457.79 166.908 1457.79C164.185 1457.79 162.019 1458.39 160.409 1459.6C158.8 1460.78 157.734 1462.27 157.213 1464.07L143.222 1462.94C143.932 1459.62 145.329 1456.76 147.412 1454.34C149.496 1451.91 152.183 1450.04 155.473 1448.73C158.788 1447.41 162.623 1446.74 166.979 1446.74C170.009 1446.74 172.909 1447.1 175.679 1447.81C178.473 1448.52 180.947 1449.62 183.101 1451.11C185.279 1452.6 186.996 1454.52 188.25 1456.87C189.505 1459.19 190.132 1461.97 190.132 1465.21V1502H175.786V1494.44H175.36C174.484 1496.14 173.312 1497.64 171.844 1498.95C170.376 1500.22 168.613 1501.23 166.553 1501.96C164.493 1502.67 162.114 1503.03 159.415 1503.03ZM163.748 1492.59C165.973 1492.59 167.938 1492.15 169.642 1491.28C171.347 1490.38 172.685 1489.17 173.655 1487.65C174.626 1486.14 175.111 1484.42 175.111 1482.5V1476.72C174.638 1477.02 173.987 1477.31 173.158 1477.57C172.353 1477.8 171.442 1478.03 170.424 1478.24C169.406 1478.43 168.388 1478.61 167.37 1478.78C166.352 1478.92 165.428 1479.05 164.6 1479.17C162.824 1479.43 161.274 1479.84 159.948 1480.41C158.622 1480.98 157.592 1481.75 156.858 1482.72C156.124 1483.66 155.757 1484.85 155.757 1486.27C155.757 1488.33 156.503 1489.9 157.995 1490.99C159.51 1492.06 161.427 1492.59 163.748 1492.59ZM247.252 1463.01L233.403 1463.86C233.166 1462.68 232.657 1461.61 231.876 1460.66C231.095 1459.69 230.065 1458.92 228.787 1458.36C227.532 1457.76 226.029 1457.47 224.277 1457.47C221.933 1457.47 219.956 1457.97 218.346 1458.96C216.736 1459.93 215.931 1461.23 215.931 1462.87C215.931 1464.17 216.452 1465.27 217.494 1466.17C218.536 1467.07 220.323 1467.79 222.856 1468.34L232.728 1470.32C238.031 1471.41 241.985 1473.16 244.589 1475.58C247.193 1477.99 248.495 1481.17 248.495 1485.1C248.495 1488.67 247.442 1491.81 245.335 1494.51C243.252 1497.21 240.387 1499.31 236.741 1500.83C233.119 1502.32 228.94 1503.07 224.206 1503.07C216.985 1503.07 211.232 1501.56 206.947 1498.56C202.686 1495.53 200.188 1491.41 199.454 1486.2L214.333 1485.42C214.783 1487.62 215.872 1489.3 217.6 1490.46C219.329 1491.6 221.542 1492.16 224.241 1492.16C226.893 1492.16 229.023 1491.65 230.633 1490.64C232.267 1489.59 233.095 1488.26 233.119 1486.62C233.095 1485.25 232.515 1484.13 231.379 1483.25C230.243 1482.35 228.491 1481.66 226.123 1481.19L216.677 1479.31C211.35 1478.24 207.385 1476.4 204.781 1473.77C202.2 1471.14 200.91 1467.79 200.91 1463.72C200.91 1460.21 201.857 1457.2 203.751 1454.66C205.669 1452.13 208.356 1450.18 211.812 1448.8C215.292 1447.43 219.364 1446.74 224.028 1446.74C230.917 1446.74 236.339 1448.2 240.292 1451.11C244.27 1454.02 246.59 1457.99 247.252 1463.01ZM282.879 1503.07C277.268 1503.07 272.439 1501.93 268.391 1499.66C264.366 1497.36 261.265 1494.12 259.087 1489.93C256.909 1485.71 255.82 1480.73 255.82 1474.98C255.82 1469.37 256.909 1464.44 259.087 1460.2C261.265 1455.97 264.33 1452.66 268.284 1450.3C272.261 1447.93 276.925 1446.74 282.276 1446.74C285.874 1446.74 289.224 1447.32 292.325 1448.48C295.45 1449.62 298.173 1451.34 300.493 1453.63C302.837 1455.93 304.66 1458.82 305.962 1462.3C307.264 1465.75 307.915 1469.8 307.915 1474.44V1478.6H261.857V1469.22H293.675C293.675 1467.04 293.201 1465.12 292.254 1463.43C291.307 1461.75 289.993 1460.44 288.312 1459.49C286.655 1458.52 284.726 1458.04 282.524 1458.04C280.228 1458.04 278.192 1458.57 276.416 1459.63C274.664 1460.68 273.291 1462.09 272.297 1463.86C271.303 1465.61 270.794 1467.57 270.77 1469.72V1478.63C270.77 1481.33 271.267 1483.66 272.261 1485.63C273.279 1487.59 274.712 1489.11 276.558 1490.17C278.405 1491.24 280.595 1491.77 283.128 1491.77C284.809 1491.77 286.348 1491.54 287.744 1491.06C289.141 1490.59 290.337 1489.88 291.331 1488.93C292.325 1487.98 293.083 1486.82 293.604 1485.45L307.595 1486.38C306.885 1489.74 305.429 1492.67 303.227 1495.18C301.049 1497.67 298.232 1499.61 294.776 1501.01C291.343 1502.38 287.377 1503.07 282.879 1503.07ZM101.332 1623V1568.45H115.998V1577.97H116.566C117.561 1574.59 119.23 1572.03 121.573 1570.3C123.917 1568.55 126.616 1567.67 129.67 1567.67C130.427 1567.67 131.244 1567.72 132.12 1567.82C132.996 1567.91 133.766 1568.04 134.428 1568.21V1581.63C133.718 1581.42 132.736 1581.23 131.481 1581.06C130.226 1580.9 129.078 1580.81 128.036 1580.81C125.811 1580.81 123.822 1581.3 122.07 1582.27C120.342 1583.22 118.969 1584.54 117.951 1586.25C116.957 1587.95 116.46 1589.92 116.46 1592.14V1623H101.332ZM156.241 1624.03C152.761 1624.03 149.66 1623.43 146.937 1622.22C144.215 1620.99 142.06 1619.18 140.474 1616.79C138.912 1614.37 138.131 1611.36 138.131 1607.77C138.131 1604.74 138.687 1602.19 139.8 1600.13C140.912 1598.07 142.427 1596.41 144.345 1595.16C146.263 1593.9 148.441 1592.96 150.879 1592.32C153.341 1591.68 155.922 1591.23 158.621 1590.97C161.793 1590.64 164.35 1590.33 166.291 1590.05C168.232 1589.74 169.641 1589.29 170.517 1588.7C171.393 1588.1 171.831 1587.23 171.831 1586.07V1585.86C171.831 1583.61 171.121 1581.87 169.7 1580.63C168.303 1579.4 166.315 1578.79 163.734 1578.79C161.012 1578.79 158.845 1579.39 157.236 1580.6C155.626 1581.78 154.56 1583.27 154.04 1585.07L140.048 1583.94C140.758 1580.62 142.155 1577.76 144.238 1575.34C146.322 1572.91 149.009 1571.04 152.3 1569.73C155.614 1568.41 159.449 1567.74 163.805 1567.74C166.836 1567.74 169.736 1568.1 172.506 1568.81C175.299 1569.52 177.773 1570.62 179.927 1572.11C182.105 1573.6 183.822 1575.52 185.077 1577.87C186.331 1580.19 186.959 1582.97 186.959 1586.21V1623H172.612V1615.44H172.186C171.31 1617.14 170.138 1618.64 168.67 1619.95C167.202 1621.22 165.439 1622.23 163.379 1622.96C161.319 1623.67 158.94 1624.03 156.241 1624.03ZM160.574 1613.59C162.799 1613.59 164.764 1613.15 166.469 1612.28C168.173 1611.38 169.511 1610.17 170.481 1608.65C171.452 1607.14 171.937 1605.42 171.937 1603.5V1597.72C171.464 1598.02 170.813 1598.31 169.984 1598.57C169.179 1598.8 168.268 1599.03 167.25 1599.24C166.232 1599.43 165.214 1599.61 164.196 1599.78C163.178 1599.92 162.255 1600.05 161.426 1600.17C159.65 1600.43 158.1 1600.84 156.774 1601.41C155.448 1601.98 154.418 1602.75 153.684 1603.72C152.951 1604.66 152.584 1605.85 152.584 1607.27C152.584 1609.33 153.329 1610.9 154.821 1611.99C156.336 1613.06 158.254 1613.59 160.574 1613.59ZM227.708 1568.45V1579.82H194.86V1568.45H227.708ZM202.317 1555.39H217.445V1606.24C217.445 1607.64 217.658 1608.72 218.084 1609.51C218.51 1610.26 219.102 1610.8 219.86 1611.1C220.641 1611.41 221.541 1611.57 222.559 1611.57C223.269 1611.57 223.979 1611.51 224.689 1611.39C225.4 1611.25 225.944 1611.14 226.323 1611.07L228.702 1622.33C227.945 1622.56 226.879 1622.83 225.506 1623.14C224.133 1623.47 222.464 1623.67 220.499 1623.75C216.853 1623.89 213.657 1623.4 210.911 1622.29C208.189 1621.18 206.07 1619.45 204.555 1617.11C203.039 1614.76 202.294 1611.8 202.317 1608.23V1555.39ZM261.834 1624.07C256.224 1624.07 251.394 1622.93 247.346 1620.66C243.321 1618.36 240.22 1615.12 238.042 1610.93C235.864 1606.71 234.775 1601.73 234.775 1595.98C234.775 1590.37 235.864 1585.44 238.042 1581.2C240.22 1576.97 243.286 1573.66 247.239 1571.3C251.216 1568.93 255.88 1567.74 261.231 1567.74C264.829 1567.74 268.179 1568.32 271.28 1569.48C274.405 1570.62 277.128 1572.34 279.448 1574.63C281.792 1576.93 283.615 1579.82 284.917 1583.3C286.219 1586.75 286.87 1590.8 286.87 1595.44V1599.6H240.812V1590.22H272.63C272.63 1588.04 272.156 1586.12 271.209 1584.43C270.262 1582.75 268.948 1581.44 267.268 1580.49C265.61 1579.52 263.681 1579.04 261.479 1579.04C259.183 1579.04 257.147 1579.57 255.371 1580.63C253.619 1581.68 252.246 1583.09 251.252 1584.86C250.258 1586.61 249.749 1588.57 249.725 1590.72V1599.63C249.725 1602.33 250.222 1604.66 251.216 1606.63C252.234 1608.59 253.667 1610.11 255.513 1611.17C257.36 1612.24 259.55 1612.77 262.083 1612.77C263.764 1612.77 265.303 1612.54 266.699 1612.06C268.096 1611.59 269.292 1610.88 270.286 1609.93C271.28 1608.98 272.038 1607.82 272.559 1606.45L286.55 1607.38C285.84 1610.74 284.384 1613.67 282.182 1616.18C280.004 1618.67 277.187 1620.61 273.731 1622.01C270.298 1623.38 266.332 1624.07 261.834 1624.07Z" fill="#006CA9"/>
<path d="M471.612 1177.06V1126.77H484.325V1177.06H471.612ZM452.827 1158.27V1145.56H503.111V1158.27H452.827ZM517.99 1181V1126.45H533.118V1181H517.99ZM525.589 1119.42C523.34 1119.42 521.411 1118.68 519.801 1117.19C518.215 1115.67 517.422 1113.86 517.422 1111.75C517.422 1109.67 518.215 1107.88 519.801 1106.39C521.411 1104.88 523.34 1104.12 525.589 1104.12C527.839 1104.12 529.756 1104.88 531.342 1106.39C532.952 1107.88 533.757 1109.67 533.757 1111.75C533.757 1113.86 532.952 1115.67 531.342 1117.19C529.756 1118.68 527.839 1119.42 525.589 1119.42ZM560.364 1149.47V1181H545.236V1126.45H559.654V1136.08H560.293C561.5 1132.91 563.525 1130.4 566.365 1128.55C569.206 1126.68 572.651 1125.74 576.699 1125.74C580.487 1125.74 583.79 1126.57 586.607 1128.23C589.424 1129.89 591.614 1132.25 593.176 1135.33C594.739 1138.39 595.52 1142.03 595.52 1146.27V1181H580.392V1148.97C580.416 1145.63 579.564 1143.03 577.836 1141.16C576.107 1139.26 573.728 1138.32 570.698 1138.32C568.662 1138.32 566.863 1138.75 565.3 1139.63C563.761 1140.51 562.554 1141.78 561.678 1143.46C560.826 1145.12 560.388 1147.12 560.364 1149.47ZM632.088 1182.07C626.501 1182.07 621.695 1180.88 617.67 1178.51C613.67 1176.12 610.592 1172.81 608.438 1168.57C606.307 1164.33 605.241 1159.46 605.241 1153.94C605.241 1148.35 606.319 1143.45 608.473 1139.24C610.651 1135 613.741 1131.7 617.741 1129.33C621.742 1126.94 626.501 1125.74 632.017 1125.74C636.776 1125.74 640.942 1126.61 644.517 1128.34C648.092 1130.06 650.921 1132.49 653.004 1135.62C655.088 1138.74 656.236 1142.41 656.449 1146.62H642.173C641.771 1143.9 640.705 1141.71 638.977 1140.06C637.273 1138.37 635.036 1137.53 632.266 1137.53C629.922 1137.53 627.874 1138.17 626.122 1139.45C624.394 1140.71 623.045 1142.54 622.074 1144.96C621.103 1147.37 620.618 1150.29 620.618 1153.73C620.618 1157.21 621.091 1160.17 622.038 1162.61C623.009 1165.04 624.37 1166.9 626.122 1168.18C627.874 1169.46 629.922 1170.1 632.266 1170.1C633.994 1170.1 635.545 1169.74 636.918 1169.03C638.314 1168.32 639.463 1167.29 640.362 1165.94C641.286 1164.57 641.889 1162.92 642.173 1161.01H656.449C656.212 1165.17 655.076 1168.84 653.04 1172.02C651.027 1175.16 648.246 1177.63 644.695 1179.4C641.143 1181.18 636.941 1182.07 632.088 1182.07ZM666.135 1181V1126.45H680.801V1135.97H681.369C682.363 1132.59 684.032 1130.03 686.376 1128.3C688.72 1126.55 691.419 1125.67 694.473 1125.67C695.23 1125.67 696.047 1125.72 696.923 1125.82C697.799 1125.91 698.568 1126.04 699.231 1126.21V1139.63C698.521 1139.42 697.538 1139.23 696.284 1139.06C695.029 1138.9 693.881 1138.81 692.839 1138.81C690.614 1138.81 688.625 1139.3 686.873 1140.27C685.145 1141.22 683.772 1142.54 682.754 1144.25C681.76 1145.95 681.262 1147.92 681.262 1150.14V1181H666.135Z" fill="#006CA9"/>
<path d="M690.612 977.058V926.774H703.325V977.058H690.612ZM671.827 958.273V945.56H722.111V958.273H671.827ZM736.99 981V926.455H752.118V981H736.99ZM744.589 919.423C742.34 919.423 740.411 918.678 738.801 917.186C737.215 915.671 736.422 913.86 736.422 911.753C736.422 909.67 737.215 907.882 738.801 906.391C740.411 904.875 742.34 904.118 744.589 904.118C746.839 904.118 748.756 904.875 750.342 906.391C751.952 907.882 752.757 909.67 752.757 911.753C752.757 913.86 751.952 915.671 750.342 917.186C748.756 918.678 746.839 919.423 744.589 919.423ZM779.364 949.466V981H764.236V926.455H778.654V936.078H779.293C780.5 932.906 782.525 930.396 785.365 928.55C788.206 926.679 791.651 925.744 795.699 925.744C799.487 925.744 802.79 926.573 805.607 928.23C808.424 929.887 810.614 932.255 812.176 935.332C813.739 938.386 814.52 942.032 814.52 946.27V981H799.392V948.969C799.416 945.631 798.564 943.027 796.836 941.156C795.107 939.262 792.728 938.315 789.698 938.315C787.662 938.315 785.863 938.753 784.3 939.629C782.761 940.505 781.554 941.784 780.678 943.464C779.826 945.122 779.388 947.122 779.364 949.466ZM851.088 982.065C845.501 982.065 840.695 980.882 836.67 978.514C832.67 976.123 829.592 972.809 827.438 968.571C825.307 964.333 824.241 959.456 824.241 953.94C824.241 948.353 825.319 943.453 827.473 939.239C829.651 935.001 832.741 931.698 836.741 929.331C840.742 926.94 845.501 925.744 851.017 925.744C855.776 925.744 859.942 926.608 863.517 928.337C867.092 930.065 869.921 932.491 872.004 935.616C874.088 938.741 875.236 942.411 875.449 946.625H861.173C860.771 943.902 859.705 941.713 857.977 940.055C856.273 938.375 854.036 937.534 851.266 937.534C848.922 937.534 846.874 938.173 845.122 939.452C843.394 940.706 842.045 942.541 841.074 944.956C840.103 947.371 839.618 950.295 839.618 953.727C839.618 957.207 840.091 960.167 841.038 962.605C842.009 965.044 843.37 966.902 845.122 968.18C846.874 969.459 848.922 970.098 851.266 970.098C852.994 970.098 854.545 969.743 855.918 969.033C857.314 968.322 858.463 967.293 859.362 965.943C860.286 964.57 860.889 962.925 861.173 961.007H875.449C875.212 965.174 874.076 968.843 872.04 972.016C870.027 975.164 867.246 977.626 863.695 979.402C860.143 981.178 855.941 982.065 851.088 982.065ZM885.135 981V926.455H899.801V935.972H900.369C901.363 932.586 903.032 930.029 905.376 928.301C907.72 926.549 910.419 925.673 913.473 925.673C914.23 925.673 915.047 925.721 915.923 925.815C916.799 925.91 917.568 926.04 918.231 926.206V939.629C917.521 939.416 916.538 939.227 915.284 939.061C914.029 938.895 912.881 938.812 911.839 938.812C909.614 938.812 907.625 939.298 905.873 940.268C904.145 941.215 902.772 942.541 901.754 944.246C900.76 945.95 900.262 947.915 900.262 950.141V981H885.135Z" fill="#006CA9"/>
<path d="M24.6033 122.455V47.4545H39.5181V56.6165H40.1928C40.8557 55.1487 41.8145 53.6572 43.0692 52.142C44.3477 50.6032 46.0049 49.3248 48.0408 48.3068C50.1005 47.2652 52.6573 46.7443 55.7113 46.7443C59.6886 46.7443 63.3581 47.786 66.7198 49.8693C70.0816 51.929 72.7686 55.0421 74.7809 59.2088C76.7932 63.3518 77.7994 68.5483 77.7994 74.7983C77.7994 80.8826 76.8169 86.0199 74.8519 90.2102C72.9106 94.3769 70.2591 97.5374 66.8974 99.6918C63.5593 101.822 59.8188 102.888 55.6758 102.888C52.7402 102.888 50.2425 102.402 48.1829 101.432C46.1469 100.461 44.4779 99.242 43.1758 97.7741C41.8737 96.2827 40.8794 94.7794 40.1928 93.2642H39.7312V122.455H24.6033ZM39.4116 74.7273C39.4116 77.9706 39.8614 80.7997 40.761 83.2145C41.6606 85.6293 42.9627 87.5114 44.6673 88.8608C46.3718 90.1866 48.4433 90.8494 50.8817 90.8494C53.3439 90.8494 55.4272 90.1747 57.1317 88.8253C58.8363 87.4522 60.1265 85.5582 61.0025 83.1435C61.9021 80.705 62.3519 77.8996 62.3519 74.7273C62.3519 71.5786 61.9139 68.8087 61.038 66.4176C60.1621 64.0265 58.8718 62.1562 57.1673 60.8068C55.4627 59.4574 53.3675 58.7827 50.8817 58.7827C48.4196 58.7827 46.3363 59.4337 44.6317 60.7358C42.9509 62.0379 41.6606 63.8845 40.761 66.2756C39.8614 68.6667 39.4116 71.4839 39.4116 74.7273ZM87.8846 102V47.4545H102.551V56.9716H103.119C104.113 53.5862 105.782 51.0294 108.126 49.3011C110.47 47.5492 113.169 46.6733 116.223 46.6733C116.98 46.6733 117.797 46.7206 118.673 46.8153C119.549 46.91 120.318 47.0402 120.981 47.206V60.6293C120.271 60.4162 119.288 60.2268 118.034 60.0611C116.779 59.8954 115.631 59.8125 114.589 59.8125C112.364 59.8125 110.375 60.2978 108.623 61.2685C106.895 62.2154 105.522 63.5412 104.504 65.2457C103.51 66.9503 103.012 68.9152 103.012 71.1406V102H87.8846ZM128.803 102V47.4545H143.93V102H128.803ZM136.402 40.4233C134.153 40.4233 132.223 39.6776 130.614 38.1861C129.027 36.6709 128.234 34.8598 128.234 32.7528C128.234 30.6695 129.027 28.8821 130.614 27.3906C132.223 25.8755 134.153 25.1179 136.402 25.1179C138.651 25.1179 140.569 25.8755 142.155 27.3906C143.765 28.8821 144.57 30.6695 144.57 32.7528C144.57 34.8598 143.765 36.6709 142.155 38.1861C140.569 39.6776 138.651 40.4233 136.402 40.4233ZM180.694 103.065C175.106 103.065 170.301 101.882 166.276 99.5142C162.275 97.1231 159.197 93.8087 157.043 89.571C154.912 85.3333 153.847 80.4564 153.847 74.9403C153.847 69.3532 154.924 64.4527 157.078 60.2386C159.257 56.0009 162.346 52.6984 166.347 50.331C170.348 47.9399 175.106 46.7443 180.623 46.7443C185.381 46.7443 189.548 47.6084 193.123 49.3366C196.697 51.0649 199.526 53.4915 201.61 56.6165C203.693 59.7415 204.841 63.411 205.054 67.625H190.779C190.376 64.9025 189.311 62.7126 187.583 61.0554C185.878 59.3745 183.641 58.5341 180.871 58.5341C178.527 58.5341 176.48 59.1733 174.728 60.4517C172.999 61.7064 171.65 63.5412 170.679 65.956C169.709 68.3707 169.223 71.2945 169.223 74.7273C169.223 78.2074 169.697 81.1667 170.644 83.6051C171.614 86.0436 172.976 87.902 174.728 89.1804C176.48 90.4588 178.527 91.098 180.871 91.098C182.599 91.098 184.15 90.7429 185.523 90.0327C186.92 89.3224 188.068 88.2926 188.968 86.9432C189.891 85.5701 190.495 83.9247 190.779 82.0071H205.054C204.818 86.1738 203.681 89.8433 201.645 93.0156C199.633 96.1643 196.851 98.6264 193.3 100.402C189.749 102.178 185.547 103.065 180.694 103.065ZM239.598 103.065C233.987 103.065 229.158 101.929 225.109 99.6562C221.085 97.3598 217.983 94.1165 215.805 89.9261C213.627 85.7121 212.538 80.7287 212.538 74.9759C212.538 69.3651 213.627 64.4408 215.805 60.2031C217.983 55.9654 221.049 52.6629 225.003 50.2955C228.98 47.928 233.644 46.7443 238.994 46.7443C242.593 46.7443 245.943 47.3243 249.044 48.4844C252.169 49.6207 254.892 51.3371 257.212 53.6335C259.555 55.9299 261.378 58.8182 262.68 62.2983C263.982 65.7547 264.634 69.803 264.634 74.4432V78.598H218.575V69.223H250.393C250.393 67.045 249.92 65.1155 248.973 63.4347C248.026 61.7538 246.712 60.4399 245.031 59.4929C243.374 58.5223 241.445 58.0369 239.243 58.0369C236.946 58.0369 234.911 58.5696 233.135 59.6349C231.383 60.6766 230.01 62.0852 229.016 63.8608C228.021 65.6127 227.512 67.5658 227.489 69.7202V78.6335C227.489 81.3324 227.986 83.6643 228.98 85.6293C229.998 87.5942 231.43 89.1094 233.277 90.1747C235.124 91.2401 237.313 91.7727 239.847 91.7727C241.527 91.7727 243.066 91.536 244.463 91.0625C245.86 90.589 247.055 89.8788 248.05 88.9318C249.044 87.9848 249.802 86.8248 250.322 85.4517L264.314 86.375C263.604 89.7367 262.148 92.6723 259.946 95.1818C257.768 97.6676 254.951 99.6089 251.494 101.006C248.062 102.379 244.096 103.065 239.598 103.065ZM306.182 25.8636L282.744 112.938H269.712L293.149 25.8636H306.182ZM100.025 223.888C95.882 223.888 92.1297 222.822 88.7679 220.692C85.4299 218.537 82.7784 215.377 80.8134 211.21C78.8721 207.02 77.9015 201.883 77.9015 195.798C77.9015 189.548 78.9076 184.352 80.9199 180.209C82.9322 176.042 85.6074 172.929 88.9455 170.869C92.3072 168.786 95.9886 167.744 99.9895 167.744C103.044 167.744 105.588 168.265 107.624 169.307C109.684 170.325 111.341 171.603 112.596 173.142C113.874 174.657 114.845 176.149 115.508 177.616H115.97V150.273H131.062V223H116.147V214.264H115.508C114.798 215.779 113.792 217.283 112.49 218.774C111.211 220.242 109.542 221.461 107.482 222.432C105.446 223.402 102.961 223.888 100.025 223.888ZM104.819 211.849C107.258 211.849 109.317 211.187 110.998 209.861C112.703 208.511 114.005 206.629 114.904 204.214C115.828 201.8 116.289 198.971 116.289 195.727C116.289 192.484 115.839 189.667 114.94 187.276C114.04 184.884 112.738 183.038 111.034 181.736C109.329 180.434 107.258 179.783 104.819 179.783C102.333 179.783 100.238 180.457 98.5336 181.807C96.829 183.156 95.5388 185.027 94.6628 187.418C93.7869 189.809 93.3489 192.579 93.3489 195.727C93.3489 198.9 93.7869 201.705 94.6628 204.143C95.5624 206.558 96.8527 208.452 98.5336 209.825C100.238 211.175 102.333 211.849 104.819 211.849ZM159.054 224.03C155.574 224.03 152.472 223.426 149.75 222.219C147.027 220.988 144.873 219.177 143.287 216.786C141.724 214.371 140.943 211.364 140.943 207.766C140.943 204.735 141.499 202.19 142.612 200.131C143.725 198.071 145.24 196.414 147.157 195.159C149.075 193.904 151.253 192.957 153.692 192.318C156.154 191.679 158.734 191.229 161.433 190.969C164.605 190.637 167.162 190.33 169.104 190.045C171.045 189.738 172.453 189.288 173.329 188.696C174.205 188.104 174.643 187.228 174.643 186.068V185.855C174.643 183.606 173.933 181.866 172.513 180.635C171.116 179.404 169.127 178.788 166.547 178.788C163.824 178.788 161.658 179.392 160.048 180.599C158.438 181.783 157.373 183.275 156.852 185.074L142.861 183.938C143.571 180.623 144.968 177.759 147.051 175.344C149.134 172.905 151.821 171.035 155.112 169.733C158.426 168.407 162.262 167.744 166.618 167.744C169.648 167.744 172.548 168.099 175.318 168.81C178.112 169.52 180.586 170.621 182.74 172.112C184.918 173.604 186.634 175.521 187.889 177.865C189.144 180.185 189.771 182.967 189.771 186.21V223H175.425V215.436H174.998C174.122 217.141 172.951 218.644 171.483 219.946C170.015 221.224 168.251 222.231 166.192 222.964C164.132 223.675 161.753 224.03 159.054 224.03ZM163.386 213.589C165.612 213.589 167.577 213.152 169.281 212.276C170.986 211.376 172.323 210.169 173.294 208.653C174.265 207.138 174.75 205.422 174.75 203.504V197.716C174.276 198.024 173.625 198.308 172.797 198.568C171.992 198.805 171.08 199.03 170.062 199.243C169.044 199.432 168.026 199.61 167.008 199.776C165.99 199.918 165.067 200.048 164.238 200.166C162.463 200.427 160.912 200.841 159.586 201.409C158.261 201.977 157.231 202.747 156.497 203.717C155.763 204.664 155.396 205.848 155.396 207.268C155.396 209.328 156.142 210.902 157.633 211.991C159.148 213.057 161.066 213.589 163.386 213.589ZM208.894 243.455C206.976 243.455 205.177 243.301 203.496 242.993C201.839 242.709 200.466 242.342 199.377 241.892L202.786 230.599C204.562 231.144 206.16 231.44 207.58 231.487C209.024 231.535 210.267 231.203 211.309 230.493C212.374 229.783 213.238 228.575 213.901 226.871L214.789 224.562L195.222 168.455H211.131L222.424 208.511H222.992L234.391 168.455H250.407L229.206 228.895C228.189 231.83 226.804 234.387 225.052 236.565C223.323 238.767 221.134 240.46 218.482 241.643C215.831 242.851 212.635 243.455 208.894 243.455Z" fill="#737370"/>
<path d="M2704.53 2102.89C2700.38 2102.89 2696.63 2101.82 2693.27 2099.69C2689.93 2097.54 2687.28 2094.38 2685.31 2090.21C2683.37 2086.02 2682.4 2080.88 2682.4 2074.8C2682.4 2068.55 2683.41 2063.35 2685.42 2059.21C2687.43 2055.04 2690.11 2051.93 2693.45 2049.87C2696.81 2047.79 2700.49 2046.74 2704.49 2046.74C2707.54 2046.74 2710.09 2047.27 2712.12 2048.31C2714.18 2049.32 2715.84 2050.6 2717.1 2052.14C2718.37 2053.66 2719.35 2055.15 2720.01 2056.62H2720.47V2029.27H2735.56V2102H2720.65V2093.26H2720.01C2719.3 2094.78 2718.29 2096.28 2716.99 2097.77C2715.71 2099.24 2714.04 2100.46 2711.98 2101.43C2709.95 2102.4 2707.46 2102.89 2704.53 2102.89ZM2709.32 2090.85C2711.76 2090.85 2713.82 2090.19 2715.5 2088.86C2717.2 2087.51 2718.5 2085.63 2719.4 2083.21C2720.33 2080.8 2720.79 2077.97 2720.79 2074.73C2720.79 2071.48 2720.34 2068.67 2719.44 2066.28C2718.54 2063.88 2717.24 2062.04 2715.53 2060.74C2713.83 2059.43 2711.76 2058.78 2709.32 2058.78C2706.83 2058.78 2704.74 2059.46 2703.03 2060.81C2701.33 2062.16 2700.04 2064.03 2699.16 2066.42C2698.29 2068.81 2697.85 2071.58 2697.85 2074.73C2697.85 2077.9 2698.29 2080.71 2699.16 2083.14C2700.06 2085.56 2701.35 2087.45 2703.03 2088.83C2704.74 2090.17 2706.83 2090.85 2709.32 2090.85ZM2763.55 2103.03C2760.07 2103.03 2756.97 2102.43 2754.25 2101.22C2751.53 2099.99 2749.37 2098.18 2747.79 2095.79C2746.22 2093.37 2745.44 2090.36 2745.44 2086.77C2745.44 2083.74 2746 2081.19 2747.11 2079.13C2748.22 2077.07 2749.74 2075.41 2751.66 2074.16C2753.58 2072.9 2755.75 2071.96 2758.19 2071.32C2760.65 2070.68 2763.23 2070.23 2765.93 2069.97C2769.11 2069.64 2771.66 2069.33 2773.6 2069.05C2775.54 2068.74 2776.95 2068.29 2777.83 2067.7C2778.71 2067.1 2779.14 2066.23 2779.14 2065.07V2064.86C2779.14 2062.61 2778.43 2060.87 2777.01 2059.63C2775.62 2058.4 2773.63 2057.79 2771.05 2057.79C2768.32 2057.79 2766.16 2058.39 2764.55 2059.6C2762.94 2060.78 2761.87 2062.27 2761.35 2064.07L2747.36 2062.94C2748.07 2059.62 2749.47 2056.76 2751.55 2054.34C2753.63 2051.91 2756.32 2050.04 2759.61 2048.73C2762.93 2047.41 2766.76 2046.74 2771.12 2046.74C2774.15 2046.74 2777.05 2047.1 2779.82 2047.81C2782.61 2048.52 2785.09 2049.62 2787.24 2051.11C2789.42 2052.6 2791.13 2054.52 2792.39 2056.87C2793.64 2059.19 2794.27 2061.97 2794.27 2065.21V2102H2779.92V2094.44H2779.5C2778.62 2096.14 2777.45 2097.64 2775.98 2098.95C2774.51 2100.22 2772.75 2101.23 2770.69 2101.96C2768.63 2102.67 2766.25 2103.03 2763.55 2103.03ZM2767.89 2092.59C2770.11 2092.59 2772.08 2092.15 2773.78 2091.28C2775.49 2090.38 2776.82 2089.17 2777.79 2087.65C2778.76 2086.14 2779.25 2084.42 2779.25 2082.5V2076.72C2778.78 2077.02 2778.13 2077.31 2777.3 2077.57C2776.49 2077.8 2775.58 2078.03 2774.56 2078.24C2773.54 2078.43 2772.53 2078.61 2771.51 2078.78C2770.49 2078.92 2769.57 2079.05 2768.74 2079.17C2766.96 2079.43 2765.41 2079.84 2764.09 2080.41C2762.76 2080.98 2761.73 2081.75 2761 2082.72C2760.26 2083.66 2759.9 2084.85 2759.9 2086.27C2759.9 2088.33 2760.64 2089.9 2762.13 2090.99C2763.65 2092.06 2765.57 2092.59 2767.89 2092.59ZM2813.39 2122.45C2811.48 2122.45 2809.68 2122.3 2808 2121.99C2806.34 2121.71 2804.97 2121.34 2803.88 2120.89L2807.29 2109.6C2809.06 2110.14 2810.66 2110.44 2812.08 2110.49C2813.52 2110.53 2814.77 2110.2 2815.81 2109.49C2816.87 2108.78 2817.74 2107.58 2818.4 2105.87L2819.29 2103.56L2799.72 2047.45H2815.63L2826.92 2087.51H2827.49L2838.89 2047.45H2854.91L2833.71 2107.89C2832.69 2110.83 2831.3 2113.39 2829.55 2115.57C2827.82 2117.77 2825.63 2119.46 2822.98 2120.64C2820.33 2121.85 2817.13 2122.45 2813.39 2122.45Z" fill="#006CA9"/>
<path d="M2524.68 1023.45V1034.82H2491.84V1023.45H2524.68ZM2499.29 1010.39H2514.42V1061.24C2514.42 1062.64 2514.63 1063.72 2515.06 1064.51C2515.49 1065.26 2516.08 1065.8 2516.84 1066.1C2517.62 1066.41 2518.52 1066.57 2519.54 1066.57C2520.25 1066.57 2520.96 1066.51 2521.67 1066.39C2522.38 1066.25 2522.92 1066.14 2523.3 1066.07L2525.68 1077.33C2524.92 1077.56 2523.86 1077.83 2522.48 1078.14C2521.11 1078.47 2519.44 1078.67 2517.48 1078.75C2513.83 1078.89 2510.63 1078.4 2507.89 1077.29C2505.17 1076.18 2503.05 1074.45 2501.53 1072.11C2500.02 1069.76 2499.27 1066.8 2499.29 1063.23V1010.39ZM2558.6 1079.07C2553.08 1079.07 2548.31 1077.89 2544.29 1075.55C2540.29 1073.18 2537.2 1069.89 2535.02 1065.68C2532.84 1061.44 2531.75 1056.53 2531.75 1050.94C2531.75 1045.31 2532.84 1040.38 2535.02 1036.17C2537.2 1031.93 2540.29 1028.64 2544.29 1026.3C2548.31 1023.93 2553.08 1022.74 2558.6 1022.74C2564.11 1022.74 2568.87 1023.93 2572.87 1026.3C2576.9 1028.64 2580 1031.93 2582.18 1036.17C2584.36 1040.38 2585.44 1045.31 2585.44 1050.94C2585.44 1056.53 2584.36 1061.44 2582.18 1065.68C2580 1069.89 2576.9 1073.18 2572.87 1075.55C2568.87 1077.89 2564.11 1079.07 2558.6 1079.07ZM2558.67 1067.35C2561.18 1067.35 2563.27 1066.64 2564.95 1065.22C2566.64 1063.77 2567.9 1061.81 2568.75 1059.32C2569.63 1056.84 2570.07 1054.01 2570.07 1050.83C2570.07 1047.66 2569.63 1044.83 2568.75 1042.35C2567.9 1039.86 2566.64 1037.9 2564.95 1036.45C2563.27 1035.01 2561.18 1034.29 2558.67 1034.29C2556.14 1034.29 2554.01 1035.01 2552.28 1036.45C2550.57 1037.9 2549.28 1039.86 2548.41 1042.35C2547.55 1044.83 2547.13 1047.66 2547.13 1050.83C2547.13 1054.01 2547.55 1056.84 2548.41 1059.32C2549.28 1061.81 2550.57 1063.77 2552.28 1065.22C2554.01 1066.64 2556.14 1067.35 2558.67 1067.35ZM2624.29 1023.45V1034.82H2591.45V1023.45H2624.29ZM2598.9 1010.39H2614.03V1061.24C2614.03 1062.64 2614.24 1063.72 2614.67 1064.51C2615.1 1065.26 2615.69 1065.8 2616.45 1066.1C2617.23 1066.41 2618.13 1066.57 2619.14 1066.57C2619.85 1066.57 2620.57 1066.51 2621.28 1066.39C2621.99 1066.25 2622.53 1066.14 2622.91 1066.07L2625.29 1077.33C2624.53 1077.56 2623.47 1077.83 2622.09 1078.14C2620.72 1078.47 2619.05 1078.67 2617.09 1078.75C2613.44 1078.89 2610.24 1078.4 2607.5 1077.29C2604.77 1076.18 2602.66 1074.45 2601.14 1072.11C2599.63 1069.76 2598.88 1066.8 2598.9 1063.23V1010.39ZM2649.7 1079.03C2646.22 1079.03 2643.12 1078.43 2640.4 1077.22C2637.68 1075.99 2635.52 1074.18 2633.94 1071.79C2632.37 1069.37 2631.59 1066.36 2631.59 1062.77C2631.59 1059.74 2632.15 1057.19 2633.26 1055.13C2634.37 1053.07 2635.89 1051.41 2637.81 1050.16C2639.72 1048.9 2641.9 1047.96 2644.34 1047.32C2646.8 1046.68 2649.38 1046.23 2652.08 1045.97C2655.25 1045.64 2657.81 1045.33 2659.75 1045.05C2661.69 1044.74 2663.1 1044.29 2663.98 1043.7C2664.85 1043.1 2665.29 1042.23 2665.29 1041.07V1040.86C2665.29 1038.61 2664.58 1036.87 2663.16 1035.63C2661.76 1034.4 2659.78 1033.79 2657.2 1033.79C2654.47 1033.79 2652.31 1034.39 2650.7 1035.6C2649.09 1036.78 2648.02 1038.27 2647.5 1040.07L2633.51 1038.94C2634.22 1035.62 2635.62 1032.76 2637.7 1030.34C2639.78 1027.91 2642.47 1026.04 2645.76 1024.73C2649.07 1023.41 2652.91 1022.74 2657.27 1022.74C2660.3 1022.74 2663.2 1023.1 2665.97 1023.81C2668.76 1024.52 2671.23 1025.62 2673.39 1027.11C2675.57 1028.6 2677.28 1030.52 2678.54 1032.87C2679.79 1035.19 2680.42 1037.97 2680.42 1041.21V1078H2666.07V1070.44H2665.65C2664.77 1072.14 2663.6 1073.64 2662.13 1074.95C2660.66 1076.22 2658.9 1077.23 2656.84 1077.96C2654.78 1078.67 2652.4 1079.03 2649.7 1079.03ZM2654.03 1068.59C2656.26 1068.59 2658.22 1068.15 2659.93 1067.28C2661.63 1066.38 2662.97 1065.17 2663.94 1063.65C2664.91 1062.14 2665.4 1060.42 2665.4 1058.5V1052.72C2664.92 1053.02 2664.27 1053.31 2663.45 1053.57C2662.64 1053.8 2661.73 1054.03 2660.71 1054.24C2659.69 1054.43 2658.67 1054.61 2657.66 1054.78C2656.64 1054.92 2655.72 1055.05 2654.89 1055.17C2653.11 1055.43 2651.56 1055.84 2650.23 1056.41C2648.91 1056.98 2647.88 1057.75 2647.15 1058.72C2646.41 1059.66 2646.04 1060.85 2646.04 1062.27C2646.04 1064.33 2646.79 1065.9 2648.28 1066.99C2649.8 1068.06 2651.71 1068.59 2654.03 1068.59ZM2707.28 1005.27V1078H2692.16V1005.27H2707.28ZM2524.66 1200.07C2519.08 1200.07 2514.27 1198.88 2510.24 1196.51C2506.24 1194.12 2503.17 1190.81 2501.01 1186.57C2498.88 1182.33 2497.82 1177.46 2497.82 1171.94C2497.82 1166.35 2498.89 1161.45 2501.05 1157.24C2503.23 1153 2506.31 1149.7 2510.32 1147.33C2514.32 1144.94 2519.08 1143.74 2524.59 1143.74C2529.35 1143.74 2533.52 1144.61 2537.09 1146.34C2540.67 1148.06 2543.5 1150.49 2545.58 1153.62C2547.66 1156.74 2548.81 1160.41 2549.02 1164.62H2534.75C2534.35 1161.9 2533.28 1159.71 2531.55 1158.06C2529.85 1156.37 2527.61 1155.53 2524.84 1155.53C2522.5 1155.53 2520.45 1156.17 2518.7 1157.45C2516.97 1158.71 2515.62 1160.54 2514.65 1162.96C2513.68 1165.37 2513.19 1168.29 2513.19 1171.73C2513.19 1175.21 2513.67 1178.17 2514.61 1180.61C2515.58 1183.04 2516.94 1184.9 2518.7 1186.18C2520.45 1187.46 2522.5 1188.1 2524.84 1188.1C2526.57 1188.1 2528.12 1187.74 2529.49 1187.03C2530.89 1186.32 2532.04 1185.29 2532.94 1183.94C2533.86 1182.57 2534.46 1180.92 2534.75 1179.01H2549.02C2548.79 1183.17 2547.65 1186.84 2545.61 1190.02C2543.6 1193.16 2540.82 1195.63 2537.27 1197.4C2533.72 1199.18 2529.52 1200.07 2524.66 1200.07ZM2583.35 1200.07C2577.84 1200.07 2573.07 1198.89 2569.04 1196.55C2565.04 1194.18 2561.95 1190.89 2559.77 1186.68C2557.6 1182.44 2556.51 1177.53 2556.51 1171.94C2556.51 1166.31 2557.6 1161.38 2559.77 1157.17C2561.95 1152.93 2565.04 1149.64 2569.04 1147.3C2573.07 1144.93 2577.84 1143.74 2583.35 1143.74C2588.87 1143.74 2593.63 1144.93 2597.63 1147.3C2601.65 1149.64 2604.76 1152.93 2606.93 1157.17C2609.11 1161.38 2610.2 1166.31 2610.2 1171.94C2610.2 1177.53 2609.11 1182.44 2606.93 1186.68C2604.76 1190.89 2601.65 1194.18 2597.63 1196.55C2593.63 1198.89 2588.87 1200.07 2583.35 1200.07ZM2583.42 1188.35C2585.93 1188.35 2588.03 1187.64 2589.71 1186.22C2591.39 1184.77 2592.66 1182.81 2593.51 1180.32C2594.39 1177.84 2594.82 1175.01 2594.82 1171.83C2594.82 1168.66 2594.39 1165.83 2593.51 1163.35C2592.66 1160.86 2591.39 1158.9 2589.71 1157.45C2588.03 1156.01 2585.93 1155.29 2583.42 1155.29C2580.89 1155.29 2578.76 1156.01 2577.03 1157.45C2575.33 1158.9 2574.04 1160.86 2573.16 1163.35C2572.31 1165.83 2571.88 1168.66 2571.88 1171.83C2571.88 1175.01 2572.31 1177.84 2573.16 1180.32C2574.04 1182.81 2575.33 1184.77 2577.03 1186.22C2578.76 1187.64 2580.89 1188.35 2583.42 1188.35ZM2665.42 1160.01L2651.57 1160.86C2651.33 1159.68 2650.83 1158.61 2650.04 1157.66C2649.26 1156.69 2648.23 1155.92 2646.95 1155.36C2645.7 1154.76 2644.2 1154.47 2642.44 1154.47C2640.1 1154.47 2638.12 1154.97 2636.51 1155.96C2634.9 1156.93 2634.1 1158.23 2634.1 1159.87C2634.1 1161.17 2634.62 1162.27 2635.66 1163.17C2636.7 1164.07 2638.49 1164.79 2641.02 1165.34L2650.9 1167.32C2656.2 1168.41 2660.15 1170.16 2662.76 1172.58C2665.36 1174.99 2666.66 1178.17 2666.66 1182.1C2666.66 1185.67 2665.61 1188.81 2663.5 1191.51C2661.42 1194.21 2658.55 1196.31 2654.91 1197.83C2651.29 1199.32 2647.11 1200.07 2642.37 1200.07C2635.15 1200.07 2629.4 1198.56 2625.12 1195.56C2620.85 1192.53 2618.36 1188.41 2617.62 1183.2L2632.5 1182.42C2632.95 1184.62 2634.04 1186.3 2635.77 1187.46C2637.5 1188.6 2639.71 1189.16 2642.41 1189.16C2645.06 1189.16 2647.19 1188.65 2648.8 1187.64C2650.43 1186.59 2651.26 1185.26 2651.29 1183.62C2651.26 1182.25 2650.68 1181.13 2649.55 1180.25C2648.41 1179.35 2646.66 1178.66 2644.29 1178.19L2634.85 1176.31C2629.52 1175.24 2625.55 1173.4 2622.95 1170.77C2620.37 1168.14 2619.08 1164.79 2619.08 1160.72C2619.08 1157.21 2620.03 1154.2 2621.92 1151.66C2623.84 1149.13 2626.52 1147.18 2629.98 1145.8C2633.46 1144.43 2637.53 1143.74 2642.2 1143.74C2649.09 1143.74 2654.51 1145.2 2658.46 1148.11C2662.44 1151.02 2664.76 1154.99 2665.42 1160.01ZM2705.2 1144.45V1155.82H2672.35V1144.45H2705.2ZM2679.81 1131.39H2694.94V1182.24C2694.94 1183.64 2695.15 1184.72 2695.58 1185.51C2696 1186.26 2696.6 1186.8 2697.35 1187.1C2698.14 1187.41 2699.03 1187.57 2700.05 1187.57C2700.76 1187.57 2701.47 1187.51 2702.18 1187.39C2702.89 1187.25 2703.44 1187.14 2703.82 1187.07L2706.2 1198.33C2705.44 1198.56 2704.37 1198.83 2703 1199.14C2701.63 1199.47 2699.96 1199.67 2697.99 1199.75C2694.35 1199.89 2691.15 1199.4 2688.41 1198.29C2685.68 1197.18 2683.56 1195.45 2682.05 1193.11C2680.53 1190.76 2679.79 1187.8 2679.81 1184.23V1131.39Z" fill="#FA8F00"/>
<path d="M335.537 1.46447C333.584 -0.488154 330.418 -0.488156 328.466 1.46446L296.646 33.2842C294.693 35.2369 294.693 38.4027 296.646 40.3553C298.599 42.3079 301.764 42.3079 303.717 40.3553L332.001 12.0711L360.286 40.3554C362.238 42.308 365.404 42.308 367.357 40.3554C369.309 38.4027 369.309 35.2369 367.357 33.2843L335.537 1.46447ZM332 2005L337 2005L337.001 5L332.001 5L327.001 5L327 2005L332 2005Z" fill="#737370"/>
<path d="M2935.54 2008.54C2937.49 2006.58 2937.49 2003.42 2935.54 2001.46L2903.72 1969.64C2901.76 1967.69 2898.6 1967.69 2896.64 1969.64C2894.69 1971.6 2894.69 1974.76 2896.64 1976.72L2924.93 2005L2896.64 2033.28C2894.69 2035.24 2894.69 2038.4 2896.64 2040.36C2898.6 2042.31 2901.76 2042.31 2903.72 2040.36L2935.54 2008.54ZM332 2005V2010H2932V2005V2000H332V2005Z" fill="#737370"/>
<rect x="337" y="1410" width="190" height="590" stroke="#006CA9" stroke-width="10"/>
<rect x="737" y="1010" width="190" height="990" stroke="#006CA9" stroke-width="10"/>
<rect x="1356" y="210" width="190" height="1790" stroke="#006CA9" stroke-width="10"/>
<rect x="1556" y="210" width="190" height="1790" stroke="#006CA9" stroke-width="10"/>
<rect x="2261" y="210" width="190" height="1790" stroke="#006CA9" stroke-width="10"/>
<rect x="537" y="1210" width="190" height="790" stroke="#006CA9" stroke-width="10"/>
<rect x="732" y="1005" width="1728" height="1000" stroke="#FA8F00" stroke-width="15" stroke-dasharray="2 2"/>
</svg>
